<svg width="594" height="420" version="1.1" xmlns="http://www.w3.org/2000/svg" desc="Created with imagetracer.js version 1.2.6" ><path fill="rgb(33,60,71)" stroke="rgb(33,60,71)" stroke-width="1" opacity="0.9098039215686274" d="M 221.5 179 L 283.5 179 L 284 181.5 L 268.5 197 L 226 197 Q 224 200.1 225 207 L 240.5 207 L 241 208.5 L 213.5 236 L 212 236 L 208 226.5 L 208 193.5 Q 209.3 186.8 213.5 183 L 221.5 179 Z " /><path fill="rgb(33,60,71)" stroke="rgb(33,60,71)" stroke-width="1" opacity="0.9098039215686274" d="M 416.5 179 L 480.5 179 Q 489.4 180.6 493 187.5 Q 496.4 192.7 495 202 L 478.5 202 L 478 198.5 L 475.5 196 L 472.5 197 L 421.5 197 L 421 198.5 L 426.5 201 L 481.5 205 Q 489.3 206.2 493 211.5 L 495 215.5 Q 493.5 221 496 222.5 L 494 231.5 L 488.5 238 L 480.5 241 L 417.5 241 Q 409.8 239.2 406 233.5 Q 401.5 227.8 403 217 L 418.5 217 L 420 218.5 Q 419.3 223.3 422.5 224 L 475.5 224 L 477 222.5 Q 478.4 217.9 472.5 220 L 462.5 218 L 450.5 218 L 449.5 217 L 416.5 215 Q 408.9 213.2 405 207.5 Q 401.4 202.1 403 191.5 Q 404.5 185 409.5 182 L 416.5 179 Z " /><path fill="rgb(33,60,71)" stroke="rgb(33,60,71)" stroke-width="1" opacity="0.9098039215686274" d="M 99.5 180 L 115.5 180 L 132 196.5 L 150.5 216 L 184.5 180 L 201.5 180 L 202 180.5 L 202 240 L 184 240 L 184 206.5 L 165 224.5 L 156.5 234 L 144.5 234 L 135 224.5 L 116.5 204 L 116 240 L 99.5 240 L 98 238.5 L 99 230.5 L 98 229.5 L 98 205.5 L 99 204.5 L 99 182.5 Q 96.8 181.3 99.5 180 Z " /><path fill="rgb(33,60,71)" stroke="rgb(33,60,71)" stroke-width="1" opacity="0.9098039215686274" d="M 307.5 180 L 325 180 L 325 222 L 371 222 L 371 240 L 306 240 L 306 181.5 L 307.5 180 Z " /><path fill="rgb(33,60,71)" stroke="rgb(33,60,71)" stroke-width="1" opacity="0.9098039215686274" d="M 380.5 180 L 396.5 180 L 397 180.5 L 397 240 L 379.5 240 L 379 239.5 L 379 181.5 L 380.5 180 Z " /><path fill="rgb(33,60,71)" stroke="rgb(33,60,71)" stroke-width="1" opacity="0.9098039215686274" d="M 294.5 184 L 297 186.5 L 300 194.5 L 300 224.5 L 297 233.5 L 292.5 238 L 285.5 241 L 223 241 L 223 239.5 L 239.5 223 L 281.5 223 L 282 220.5 L 283 219.5 L 283 213 L 266 212.5 L 294.5 184 Z " /><path fill="rgb(0,0,0)" stroke="rgb(0,0,0)" stroke-width="1" opacity="0" d="M 0 0 L 594 0 L 594 420 L 0 420 L 0 0 Z M 222 179 L 214 183 Q 209 187 208 194 L 208 227 L 212 236 L 214 236 L 241 209 L 241 207 L 225 207 Q 224 200 226 197 L 269 197 L 284 182 L 284 179 L 222 179 Z M 417 179 L 410 182 Q 405 185 403 192 Q 401 202 405 208 Q 409 213 417 215 L 450 217 L 451 218 L 463 218 L 473 220 Q 478 218 477 223 L 476 224 L 423 224 Q 419 223 420 219 L 419 217 L 403 217 Q 402 228 406 234 Q 410 239 418 241 L 481 241 L 489 238 L 494 232 L 496 223 Q 494 221 495 216 L 493 212 Q 489 206 482 205 L 427 201 L 421 199 L 422 197 L 473 197 L 476 196 L 478 199 L 479 202 L 495 202 Q 496 193 493 188 Q 489 181 481 179 L 417 179 Z M 100 180 Q 97 181 99 183 L 99 205 L 98 206 L 98 230 L 99 231 L 98 239 L 100 240 L 116 240 L 117 204 L 135 225 L 145 234 L 157 234 L 165 225 L 184 207 L 184 240 L 202 240 L 202 181 L 202 180 L 185 180 L 151 216 L 132 197 L 116 180 L 100 180 Z M 308 180 L 306 182 L 306 240 L 371 240 L 371 222 L 325 222 L 325 180 L 308 180 Z M 381 180 L 379 182 L 379 240 L 380 240 L 397 240 L 397 181 L 397 180 L 381 180 Z M 295 184 L 266 213 L 283 213 L 283 220 L 282 221 L 282 223 L 240 223 L 223 240 L 223 241 L 286 241 L 293 238 L 297 234 L 300 225 L 300 195 L 297 187 L 295 184 Z " /></svg>