<?xml version="1.0" encoding="UTF-8"?>
<svg version="1.1" xmlns="http://www.w3.org/2000/svg" width="594" height="420">
<path d="M0 0 C1.47156022 -0.0026997 2.94311869 -0.00658608 4.41467285 -0.01159668 C7.48772285 -0.0174694 10.56030544 -0.00900166 13.63330078 0.00976562 C17.55392928 0.03255465 21.4734622 0.01941945 25.3940506 -0.00452423 C28.42946488 -0.01904316 31.4646234 -0.01434859 34.50004578 -0.00401306 C35.94480014 -0.00136254 37.38957844 -0.004556 38.83430481 -0.01393127 C54.98999868 -0.09578682 54.98999868 -0.09578682 61.68359375 6.28515625 C65.13957422 11.97952976 65.59495035 16.89659267 65.84375 23.53125 C59.90375 23.53125 53.96375 23.53125 47.84375 23.53125 C47.34875 21.55125 47.34875 21.55125 46.84375 19.53125 C28.69375 19.53125 10.54375 19.53125 -8.15625 19.53125 C-8.15625 19.86125 -8.15625 20.19125 -8.15625 20.53125 C1.06025287 21.62721797 10.26823439 22.61919114 19.52734375 23.27734375 C20.73023544 23.36406845 20.73023544 23.36406845 21.95742798 23.45254517 C25.22695818 23.68633725 28.49658639 23.91689116 31.76733398 24.13305664 C54.96749211 25.68338706 54.96749211 25.68338706 61.90625 30.78125 C65.56797163 35.97853231 66.39287274 41.27125077 65.84375 47.53125 C64.45795934 54.0066718 61.35622654 57.91055518 55.84375 61.53125 C52.5152741 62.64074197 49.98704965 62.67847358 46.47973633 62.70825195 C45.16439407 62.72108719 43.84905182 62.73392242 42.49385071 62.74714661 C41.05449807 62.75531606 39.61514115 62.7627594 38.17578125 62.76953125 C37.08611337 62.77564454 37.08611337 62.77564454 35.97443199 62.78188133 C32.1267564 62.80273116 28.27911632 62.81703558 24.43139648 62.82641602 C20.47151281 62.83745734 16.51219464 62.87183323 12.55251026 62.91158772 C9.49571239 62.93783139 6.43904744 62.94611483 3.38214684 62.94969749 C1.92339969 62.95454624 0.4646578 62.96611112 -0.9939785 62.98473549 C-8.93010064 63.07973996 -15.37617433 63.0822597 -22.15625 58.53125 C-27.28832588 52.72390098 -28.15625 46.04095358 -28.15625 38.53125 C-22.21625 38.53125 -16.27625 38.53125 -10.15625 38.53125 C-9.82625 40.51125 -9.49625 42.49125 -9.15625 44.53125 C9.32375 44.53125 27.80375 44.53125 46.84375 44.53125 C46.51375 43.87125 46.18375 43.21125 45.84375 42.53125 C42.79137329 41.87835304 42.79137329 41.87835304 39.02734375 41.5 C38.31791122 41.41786255 37.6084787 41.3357251 36.87754822 41.25109863 C27.04715468 40.15740745 17.17260012 39.52663644 7.30639648 38.85400391 C4.7676216 38.67927913 2.22953823 38.49629647 -0.30859375 38.3125 C-1.0650267 38.26347534 -1.82145966 38.21445068 -2.60081482 38.16394043 C-10.41428836 37.5905934 -18.02570253 36.78600498 -24.15625 31.53125 C-28.08128827 25.03948025 -27.90416326 18.91581889 -27.15625 11.53125 C-25.96951817 7.09033529 -23.78685553 4.953061 -19.94726562 2.38476562 C-13.66273829 -0.6039141 -6.81034411 -0.04419441 0 0 Z " fill="#141414" transform="translate(430.15625,178.46875)"/>
<path d="M0 0 C19 0 19 0 24 4.3125 C25.34184919 6.20231549 26.67477974 8.09848664 28 10 C29.84902578 11.9205497 31.70235049 13.78369832 33.625 15.625 C37.34008828 19.29352032 40.86631873 23.0096479 44.171875 27.05078125 C46.8942916 29.95352886 49.94782417 32.45213785 53 35 C53.38220703 34.5875 53.76441406 34.175 54.15820312 33.75 C66.7875983 20.13274599 66.7875983 20.13274599 73.26171875 13.76953125 C75.74983891 11.23668084 78.05862258 8.56220065 80.359375 5.859375 C82.15307514 3.82651484 84.08298661 1.91701339 86 0 C91.94 0 97.88 0 104 0 C104 19.8 104 39.6 104 60 C98.39 60 92.78 60 87 60 C86.505 60.99 86.505 60.99 86 62 C84.515 61.505 84.515 61.505 83 61 C83.33 59.68 83.66 58.36 84 57 C84.66 57 85.32 57 86 57 C85.67 47.1 85.34 37.2 85 27 C78.63334503 33.33053296 78.63334503 33.33053296 72.5625 39.9375 C71.99917969 40.57558594 71.43585938 41.21367187 70.85546875 41.87109375 C69.47069692 43.45993722 68.12512508 45.08310448 66.80078125 46.72265625 C60.71268966 53.69307995 60.71268966 53.69307995 55.46875 54.6328125 C52.25102279 54.62581744 49.18416144 54.44917638 46 54 C46 54.66 46 55.32 46 56 C43.5625 55.1875 43.5625 55.1875 41 54 C40.67 53.01 40.34 52.02 40 51 C40.66 50.67 41.32 50.34 42 50 C41.35933594 49.3709375 40.71867187 48.741875 40.05859375 48.09375 C35.36982546 43.45389584 30.82855301 38.77290079 26.5390625 33.76171875 C24.46575944 31.38847084 22.26166261 29.19312738 20 27 C18.73249331 33.79663036 18.88860274 40.54298684 18.9375 47.4375 C18.94201172 48.64599609 18.94652344 49.85449219 18.95117188 51.09960938 C18.96289843 54.06642772 18.98083201 57.0332204 19 60 C9.595 60.495 9.595 60.495 0 61 C0 40.87 0 20.74 0 0 Z M85 58 C86 60 86 60 86 60 Z " fill="#0E0E0E" transform="translate(98,180)"/>
<path d="M0 0 C2.97363949 1.58088633 3.58998246 3.88856704 4.79052734 6.9519043 C6.73956606 16.05089251 7.436715 25.66483519 6.79052734 34.9519043 C6.46052734 35.2819043 6.13052734 35.6119043 5.79052734 35.9519043 C5.5196828 37.84487214 5.2739766 39.74146187 5.04052734 41.6394043 C4.11731827 47.35515457 3.12016076 50.11427468 -1.20947266 53.9519043 C-6.31557088 56.9738808 -10.52635975 58.07615368 -16.40185547 58.08129883 C-17.95431976 58.08602707 -17.95431976 58.08602707 -19.53814697 58.09085083 C-20.6517157 58.0888266 -21.76528442 58.08680237 -22.91259766 58.0847168 C-24.06435486 58.08567352 -25.21611206 58.08663025 -26.402771 58.08761597 C-28.84045466 58.08829648 -31.27814013 58.08645115 -33.71582031 58.08227539 C-37.43119429 58.07694487 -41.14644629 58.08221469 -44.86181641 58.08862305 C-47.23291042 58.08796186 -49.60400436 58.08667986 -51.97509766 58.0847168 C-53.63330536 58.08775314 -53.63330536 58.08775314 -55.32501221 58.09085083 C-61.04889851 58.07362778 -66.54873306 57.81220686 -72.20947266 56.9519043 C-71.87947266 55.6319043 -71.54947266 54.3119043 -71.20947266 52.9519043 C-70.54947266 52.9519043 -69.88947266 52.9519043 -69.20947266 52.9519043 C-68.96197266 52.3744043 -68.71447266 51.7969043 -68.45947266 51.2019043 C-67.02647277 48.6225045 -65.42522589 46.89068838 -63.20947266 44.9519043 C-62.54947266 44.9519043 -61.88947266 44.9519043 -61.20947266 44.9519043 C-60.77634766 44.0237793 -60.77634766 44.0237793 -60.33447266 43.0769043 C-59.20947266 40.9519043 -59.20947266 40.9519043 -57.20947266 38.9519043 C-55.29855347 38.6734314 -55.29855347 38.6734314 -52.94335938 38.63305664 C-52.06259735 38.61318695 -51.18183533 38.59331726 -50.27438354 38.57284546 C-48.84619797 38.55551865 -48.84619797 38.55551865 -47.38916016 38.5378418 C-45.92846603 38.50879257 -45.92846603 38.50879257 -44.43826294 38.47915649 C-41.32042263 38.41925872 -38.2025456 38.37293459 -35.08447266 38.3269043 C-32.97377925 38.2887339 -30.86310158 38.24968274 -28.75244141 38.2097168 C-23.57159121 38.11354903 -18.39064669 38.02853166 -13.20947266 37.9519043 C-13.20947266 35.3119043 -13.20947266 32.6719043 -13.20947266 29.9519043 C-18.81947266 29.9519043 -24.42947266 29.9519043 -30.20947266 29.9519043 C-29.87947266 28.3019043 -29.54947266 26.6519043 -29.20947266 24.9519043 C-26.96948242 23.46069336 -26.96948242 23.46069336 -24.20947266 21.9519043 C-22.44172112 20.28761505 -20.72490331 18.56832589 -19.04931641 16.8112793 C-18.08163989 15.8134736 -17.11352817 14.81608982 -16.14501953 13.8190918 C-14.63665618 12.25471692 -13.13256774 10.68673829 -11.63598633 9.11108398 C-10.18060746 7.58339846 -8.71016504 6.07161253 -7.23681641 4.5612793 C-6.36790771 3.65345703 -5.49899902 2.74563477 -4.60375977 1.81030273 C-2.20947266 -0.0480957 -2.20947266 -0.0480957 0 0 Z " fill="#36A6D6" transform="translate(295.20947265625,184.048095703125)"/>
<path d="M0 0 C-0.54777277 3.73630086 -1.91155485 5.10705613 -4.8125 7.4375 C-7.97464973 10.06886031 -10.48089617 12.73449503 -13 16 C-16.05728217 18.03818811 -16.74090401 18.25659287 -20.19604492 18.31884766 C-21.03668991 18.33871735 -21.8773349 18.35858704 -22.74345398 18.37905884 C-23.64666885 18.39061005 -24.54988373 18.40216125 -25.48046875 18.4140625 C-26.87245232 18.44311172 -26.87245232 18.44311172 -28.29255676 18.4727478 C-31.25744425 18.53254244 -34.22237057 18.57892855 -37.1875 18.625 C-39.19728259 18.66317988 -41.20704881 18.70223162 -43.21679688 18.7421875 C-48.14439842 18.83824393 -53.07207658 18.92227549 -58 19 C-58.33 21.64 -58.66 24.28 -59 27 C-53.72 27 -48.44 27 -43 27 C-44.14780559 31.59122236 -46.18283409 33.61848973 -49.42578125 36.82421875 C-50.24178047 37.64452324 -50.24178047 37.64452324 -51.07426453 38.48139954 C-52.22477779 39.63395146 -53.37907705 40.78273478 -54.53686523 41.92797852 C-56.30615798 43.68121553 -58.05889319 45.44986267 -59.81054688 47.22070312 C-60.93133104 48.33950482 -62.05304549 49.45737553 -63.17578125 50.57421875 C-63.69884354 51.10335373 -64.22190582 51.63248871 -64.76081848 52.17765808 C-69.30641134 56.63675945 -69.30641134 56.63675945 -73 57 C-79.47026039 50.23563687 -78.30670289 39.03164187 -78.25 30.375 C-78.25773438 29.18648437 -78.26546875 27.99796875 -78.2734375 26.7734375 C-78.25532867 18.66068236 -77.93811347 11.76704438 -73 5 C-68.44119051 0.89707146 -65.28127821 -0.11364285 -59.23095703 -0.22119141 C-58.04607697 -0.24436432 -56.8611969 -0.26753723 -55.64041138 -0.29141235 C-54.35915375 -0.3112619 -53.07789612 -0.33111145 -51.7578125 -0.3515625 C-50.44215302 -0.37471527 -49.12649353 -0.39786804 -47.77096558 -0.42172241 C-44.98521032 -0.47015385 -42.19942553 -0.51508116 -39.41357422 -0.55761719 C-35.85033917 -0.61234715 -32.28733707 -0.67621445 -28.72430611 -0.74279213 C-25.31888915 -0.8050612 -21.91335632 -0.85916502 -18.5078125 -0.9140625 C-17.23060333 -0.93796051 -15.95339417 -0.96185852 -14.63748169 -0.98648071 C-13.4462973 -1.0033493 -12.25511292 -1.0202179 -11.02783203 -1.03759766 C-9.45921921 -1.06305161 -9.45921921 -1.06305161 -7.85891724 -1.08901978 C-5.12016811 -1.00374174 -2.66281021 -0.6241099 0 0 Z " fill="#38A7D6" transform="translate(285,179)"/>
<path d="M0 0 C6.27 0 12.54 0 19 0 C19 13.86 19 27.72 19 42 C34.18 42 49.36 42 65 42 C65.495 51.405 65.495 51.405 66 61 C33.33 60.505 33.33 60.505 0 60 C0 40.2 0 20.4 0 0 Z " fill="#000000" transform="translate(306,180)"/>
<path d="M0 0 C1.33709047 2.67418095 1.07904171 4.65004393 1.02172852 7.64306641 C0.99158409 9.41467636 0.99158409 9.41467636 0.96083069 11.22207642 C0.93379562 12.50230682 0.90676056 13.78253723 0.87890625 15.1015625 C0.85529526 16.40829926 0.83168427 17.71503601 0.80735779 19.06137085 C0.74450236 22.53684125 0.67543996 26.01216184 0.60510254 29.48748779 C0.5344322 33.03325575 0.46960747 36.57912999 0.40429688 40.125 C0.27526577 47.08345071 0.13913988 54.04174416 0 61 C-5.94 61 -11.88 61 -18 61 C-18 41.2 -18 21.4 -18 1 C-12.06 0.67 -6.12 0.34 0 0 Z " fill="#151515" transform="translate(397,179)"/>
<path d="M0 0 C6.27 0 12.54 0 19 0 C19 13.86 19 27.72 19 42 C34.18 42 49.36 42 65 42 C65.495 51.405 65.495 51.405 66 61 C33.33 60.505 33.33 60.505 0 60 C0 40.2 0 20.4 0 0 Z M1 1 C1 20.14 1 39.28 1 59 C21.79 59 42.58 59 64 59 C64 53.72 64 48.44 64 43 C48.82 43 33.64 43 18 43 C18 29.14 18 15.28 18 1 C12.39 1 6.78 1 1 1 Z " fill="#AEAEAE" transform="translate(306,180)"/>
<path d="M0 0 C1.20094299 0.00007553 2.40188599 0.00015106 3.63922119 0.00022888 C5.57689362 0.00797081 5.57689362 0.00797081 7.55371094 0.01586914 C8.89320828 0.01773522 10.23270632 0.01915823 11.57220459 0.02015686 C15.09031065 0.02396704 18.60837515 0.03378449 22.12646484 0.04486084 C25.71939532 0.05510723 29.31233255 0.05966139 32.90527344 0.06469727 C39.94956123 0.07540814 46.99382086 0.09246652 54.03808594 0.11352539 C54.03808594 0.77352539 54.03808594 1.43352539 54.03808594 2.11352539 C50.07808594 2.11352539 46.11808594 2.11352539 42.03808594 2.11352539 C42.03808594 2.77352539 42.03808594 3.43352539 42.03808594 4.11352539 C36.9335159 4.138422 31.82898196 4.15647774 26.72436523 4.16845703 C24.99128605 4.17345614 23.25821101 4.18025763 21.52514648 4.18896484 C19.02033456 4.20122566 16.51557886 4.20679806 14.01074219 4.21118164 C12.86642479 4.21892357 12.86642479 4.21892357 11.69898987 4.2268219 C6.45648076 4.22735693 1.20963771 4.03790686 -3.96191406 3.11352539 C-4.29191406 2.78352539 -4.62191406 2.45352539 -4.96191406 2.11352539 C-7.27191406 2.77352539 -9.58191406 3.43352539 -11.96191406 4.11352539 C-9.96191406 1.11352539 -9.96191406 1.11352539 -8.20953369 0.43312073 C-5.44755637 0.04038743 -2.79096404 -0.00586337 0 0 Z " fill="#30A2D2" transform="translate(226.9619140625,179.886474609375)"/>
<path d="M0 0 C5.94 0 11.88 0 18 0 C18 19.8 18 39.6 18 60 C12.39 60 6.78 60 1 60 C0.67 60.66 0.34 61.32 0 62 C-0.99 61.67 -1.98 61.34 -3 61 C-2.67 59.68 -2.34 58.36 -2 57 C-1.34 57 -0.68 57 0 57 C-0.33 46.44 -0.66 35.88 -1 25 C-0.34 24.67 0.32 24.34 1 24 C1 35.55 1 47.1 1 59 C6.28 59 11.56 59 17 59 C17 39.86 17 20.72 17 1 C3.72536809 0.84687749 3.72536809 0.84687749 -4.65039062 7.41992188 C-5.24013672 8.12697266 -5.82988281 8.83402344 -6.4375 9.5625 C-7.40913086 10.62887695 -7.40913086 10.62887695 -8.40039062 11.71679688 C-9.97090803 13.45018275 -11.49914305 15.20637138 -13 17 C-13.66 16.67 -14.32 16.34 -15 16 C-12.68778773 13.52056484 -10.37518185 11.04149716 -8.0625 8.5625 C-7.40314453 7.85544922 -6.74378906 7.14839844 -6.06445312 6.41992188 C-5.43603516 5.74638672 -4.80761719 5.07285156 -4.16015625 4.37890625 C-3.57886963 3.7557251 -2.99758301 3.13254395 -2.39868164 2.49047852 C-1.609971 1.65000401 -0.81500364 0.81500364 0 0 Z M-1 58 C0 60 0 60 0 60 Z " fill="#717171" transform="translate(184,180)"/>
<path d="M0 0 C0.66 0.33 1.32 0.66 2 1 C1.49339844 1.68835938 1.49339844 1.68835938 0.9765625 2.390625 C0.53054687 3.00421875 0.08453125 3.6178125 -0.375 4.25 C-0.81585938 4.85328125 -1.25671875 5.4565625 -1.7109375 6.078125 C-4.71757301 10.56074522 -5.3079269 14.05907654 -5.30078125 19.43359375 C-5.30506638 20.14854507 -5.3093515 20.8634964 -5.31376648 21.60011292 C-5.31949654 23.10880476 -5.3200198 24.61752423 -5.31567383 26.1262207 C-5.31251521 28.42642661 -5.33598258 30.72534371 -5.36132812 33.02539062 C-5.36360151 34.49479005 -5.36430443 35.96419292 -5.36328125 37.43359375 C-5.372491 38.11707382 -5.38170074 38.80055389 -5.39118958 39.50474548 C-5.34905344 43.88421219 -4.46074431 46.41522705 -2 50 C-2 50.66 -2 51.32 -2 52 C1.96576202 49.82923441 4.90981744 47.32441793 8.08203125 44.11328125 C8.77059456 43.4204731 8.77059456 43.4204731 9.47306824 42.71366882 C10.92434914 41.25127862 12.36848204 39.78205874 13.8125 38.3125 C14.80096646 37.31399177 15.78989437 36.31594011 16.77929688 35.31835938 C19.19077274 32.88335692 21.59744957 30.4438041 24 28 C24.66 28.33 25.32 28.66 26 29 C22.52249986 32.55169189 19.0352334 36.09338919 15.53857422 39.6262207 C14.35061902 40.82925642 13.16537105 42.03497173 11.98291016 43.2434082 C10.28212936 44.98060371 8.57182465 46.70790934 6.859375 48.43359375 C6.33317566 48.97527695 5.80697632 49.51696014 5.26483154 50.07505798 C0.68502619 54.65693794 0.68502619 54.65693794 -3 55 C-9.47026039 48.23563687 -8.30670289 37.03164187 -8.25 28.375 C-8.25773438 27.18648437 -8.26546875 25.99796875 -8.2734375 24.7734375 C-8.2533531 15.77562587 -7.73919573 8.09024726 -1.3125 1.1875 C-0.879375 0.795625 -0.44625 0.40375 0 0 Z " fill="#AADDE8" transform="translate(215,181)"/>
<path d="M0 0 C0.66 0.33 1.32 0.66 2 1 C-0.0659594 4.71872691 -1.88742431 6.88742431 -5 10 C25.195 10.495 25.195 10.495 56 11 C52.15571757 12.92214122 50.88254592 13.24931142 46.80761719 13.24291992 C45.77264099 13.24599655 44.73766479 13.24907318 43.67132568 13.25224304 C42.55775696 13.24505753 41.44418823 13.23787201 40.296875 13.23046875 C38.5692392 13.22978142 38.5692392 13.22978142 36.80670166 13.2290802 C34.36900809 13.22605912 31.93131642 13.21817714 29.49365234 13.20581055 C25.77824998 13.18763817 22.06309828 13.18530039 18.34765625 13.18554688 C15.97656036 13.18062805 13.60546615 13.17479814 11.234375 13.16796875 C10.1289032 13.16685593 9.0234314 13.1657431 7.88446045 13.16459656 C2.16432161 13.12976058 -3.34244679 12.85597602 -9 12 C-8.67 10.68 -8.34 9.36 -8 8 C-7.34 8 -6.68 8 -6 8 C-5.7525 7.4225 -5.505 6.845 -5.25 6.25 C-3.83316683 3.6997003 -2.12372463 1.98214299 0 0 Z " fill="#BBE0E9" transform="translate(232,229)"/>
<path d="M0 0 C0.55631104 0.26006836 1.11262207 0.52013672 1.68579102 0.78808594 C1.35579102 1.44808594 1.02579102 2.10808594 0.68579102 2.78808594 C-0.30420898 2.78808594 -1.29420898 2.78808594 -2.31420898 2.78808594 C-4.17832389 4.41432075 -5.86373851 6.03791627 -7.56811523 7.81933594 C-8.06963608 8.32984497 -8.57115692 8.840354 -9.08787537 9.36633301 C-10.6914452 10.99997105 -12.28477558 12.64311208 -13.87670898 14.28808594 C-15.47305491 15.93216632 -17.0715097 17.57395348 -18.67625427 19.20983887 C-19.67524828 20.22868031 -20.6692674 21.25242744 -21.65785217 22.28137207 C-22.83900045 23.48829589 -24.07245914 24.64360628 -25.31420898 25.78808594 C-25.97420898 25.78808594 -26.63420898 25.78808594 -27.31420898 25.78808594 C-27.31420898 26.44808594 -27.31420898 27.10808594 -27.31420898 27.78808594 C-22.36420898 27.78808594 -17.41420898 27.78808594 -12.31420898 27.78808594 C-12.31420898 31.08808594 -12.31420898 34.38808594 -12.31420898 37.78808594 C-12.64420898 37.78808594 -12.97420898 37.78808594 -13.31420898 37.78808594 C-13.31420898 35.14808594 -13.31420898 32.50808594 -13.31420898 29.78808594 C-18.92420898 29.78808594 -24.53420898 29.78808594 -30.31420898 29.78808594 C-29.98420898 28.13808594 -29.65420898 26.48808594 -29.31420898 24.78808594 C-27.07421875 23.296875 -27.07421875 23.296875 -24.31420898 21.78808594 C-22.54645745 20.12379669 -20.82963964 18.40450753 -19.15405273 16.64746094 C-18.18637622 15.64965524 -17.2182645 14.65227146 -16.24975586 13.65527344 C-14.74139251 12.09089856 -13.23730407 10.52291993 -11.74072266 8.94726562 C-10.28534379 7.4195801 -8.81490137 5.90779417 -7.34155273 4.39746094 C-6.47264404 3.48963867 -5.60373535 2.58181641 -4.70849609 1.64648438 C-2.31420898 -0.21191406 -2.31420898 -0.21191406 0 0 Z " fill="#B2DFE9" transform="translate(295.314208984375,184.2119140625)"/>
<path d="M0 0 C-0.33 0.99 -0.66 1.98 -1 3 C-14.86 3 -28.72 3 -43 3 C-42.67 2.34 -42.34 1.68 -42 1 C-36.98294031 0.85650278 -31.96585061 0.71412187 -26.94873047 0.57275391 C-25.24364374 0.52455472 -23.53856545 0.47605596 -21.83349609 0.42724609 C-19.37599842 0.3569499 -16.91847193 0.28774792 -14.4609375 0.21875 C-13.70444916 0.19687622 -12.94796082 0.17500244 -12.16854858 0.15246582 C-8.11092198 0.03968306 -4.05916789 -0.02245736 0 0 Z " fill="#2CA6D3" transform="translate(284,225)"/>
<path d="M0 0 C6.33744653 6.96250975 5.22205944 20.69342752 5.16796875 29.5859375 C5 32 5 32 4 33 C3.46451656 36.09590427 3.03426398 39.20121132 2.59765625 42.3125 C2.40042969 43.199375 2.20320313 44.08625 2 45 C1.01 45.495 1.01 45.495 0 46 C0.16226074 45.17113281 0.32452148 44.34226563 0.49169922 43.48828125 C1.04385393 39.69904662 1.1439512 36.0059141 1.1328125 32.1875 C1.13376923 31.4555542 1.13472595 30.7236084 1.13571167 29.96948242 C1.13638882 28.42984938 1.13456714 26.89021341 1.13037109 25.35058594 C1.12501621 23.00709562 1.1303319 20.66379693 1.13671875 18.3203125 C1.13605789 16.81770791 1.13477655 15.31510345 1.1328125 13.8125 C1.13483673 13.11858154 1.13686096 12.42466309 1.13894653 11.7097168 C1.1198429 7.70442355 0.76940322 3.9302981 0 0 Z " fill="#C8E7F1" transform="translate(297,187)"/>
<path d="M0 0 C0.33 0 0.66 0 1 0 C1.495 8.91 1.495 8.91 2 18 C-19.45 17.67 -40.9 17.34 -63 17 C-63 16.67 -63 16.34 -63 16 C-42.21 16 -21.42 16 0 16 C0 10.72 0 5.44 0 0 Z " fill="#6C6C6C" transform="translate(370,223)"/>
<path d="M0 0 C-0.3125 1.9375 -0.3125 1.9375 -1 4 C-1.99 4.33 -2.98 4.66 -4 5 C-4 3.68 -4 2.36 -4 1 C-25.12 1.33 -46.24 1.66 -68 2 C-64.57872929 -0.28084714 -63.26023085 -0.27166285 -59.23095703 -0.3347168 C-57.45363693 -0.36936287 -57.45363693 -0.36936287 -55.64041138 -0.40470886 C-54.35915375 -0.41939713 -53.07789612 -0.43408539 -51.7578125 -0.44921875 C-50.44215302 -0.47095657 -49.12649353 -0.4926944 -47.77096558 -0.51509094 C-44.98521922 -0.56048406 -42.19948507 -0.59927232 -39.41357422 -0.63305664 C-35.85027213 -0.6765165 -32.28734039 -0.73326231 -28.72430611 -0.7946043 C-25.31888779 -0.85204178 -21.91336639 -0.90045122 -18.5078125 -0.94921875 C-17.23060333 -0.96997971 -15.95339417 -0.99074066 -14.63748169 -1.01213074 C-13.4462973 -1.02577164 -12.25511292 -1.03941254 -11.02783203 -1.0534668 C-9.98209015 -1.06741989 -8.93634827 -1.08137299 -7.85891724 -1.0957489 C-5.12258901 -1.00410567 -2.66106431 -0.62245765 0 0 Z " fill="#91CCDB" transform="translate(285,179)"/>
<path d="M0 0 C5.94 0 11.88 0 18 0 C17.67 1.32 17.34 2.64 17 4 C17 3.34 17 2.68 17 2 C12.05 2 7.1 2 2 2 C2 4.97 2 7.94 2 11 C1.67 11 1.34 11 1 11 C0.67 7.37 0.34 3.74 0 0 Z " fill="#7D7D7D" transform="translate(402,217)"/>
<path d="M0 0 C0.33 0 0.66 0 1 0 C1 12.54 1 25.08 1 38 C-0.32 37.67 -1.64 37.34 -3 37 C-2.67 35.68 -2.34 34.36 -2 33 C-1.34 33 -0.68 33 0 33 C-0.03552979 32.03586182 -0.07105957 31.07172363 -0.10766602 30.07836914 C-0.23768547 26.51343688 -0.36096787 22.94829841 -0.48217773 19.38305664 C-0.5356662 17.8377441 -0.59100068 16.29249433 -0.64819336 14.74731445 C-0.72991433 12.53089949 -0.8050717 10.31434616 -0.87890625 8.09765625 C-0.91945885 7.05545677 -0.91945885 7.05545677 -0.96083069 5.99220276 C-1.01301108 4.32890224 -1.01185107 2.66407661 -1 1 C-0.67 0.67 -0.34 0.34 0 0 Z M-1 34 C0 36 0 36 0 36 Z " fill="#CDCDCD" transform="translate(184,204)"/>
<path d="M0 0 C0.99 0.33 1.98 0.66 3 1 C-1.95 5.95 -6.9 10.9 -12 16 C-12.66 15.67 -13.32 15.34 -14 15 C-9.38 10.05 -4.76 5.1 0 0 Z " fill="#555555" transform="translate(183,181)"/>
<path d="M0 0 C0.99 0.66 1.98 1.32 3 2 C2.67 3.65 2.34 5.3 2 7 C1.67 6.34 1.34 5.68 1 5 C-2.08510827 6.19976433 -5.05047042 7.50002556 -8 9 C-7.04270084 7.87411986 -6.08412105 6.7493285 -5.125 5.625 C-4.59132813 4.99851563 -4.05765625 4.37203125 -3.5078125 3.7265625 C-2.38567993 2.44163349 -1.20628025 1.20628025 0 0 Z " fill="#3A9FCA" transform="translate(294,185)"/>
<path d="M0 0 C0.66 0.33 1.32 0.66 2 1 C0.8553125 2.546875 0.8553125 2.546875 -0.3125 4.125 C-2.57015531 7.27417261 -4.36745008 10.47712912 -6 14 C-6.33 14 -6.66 14 -7 14 C-7.56891054 9.16426043 -5.88421808 6.79068662 -3 3 C-1.25 1.125 -1.25 1.125 0 0 Z " fill="#91CCDF" transform="translate(215,181)"/>
<path d="M0 0 C0.66 0.33 1.32 0.66 2 1 C-0.16264012 4.98381075 -2.71211176 7.88983545 -6 11 C-6.66 10.67 -7.32 10.34 -8 10 C-5.61820737 6.25718301 -3.25524265 3.02272532 0 0 Z " fill="#84C8DB" transform="translate(232,229)"/>
<path d="M0 0 C1.01126953 0.23009766 1.01126953 0.23009766 2.04296875 0.46484375 C5.46877952 1.08483857 8.83893447 1.3352574 12.3125 1.5625 C13.56675781 1.64628906 14.82101563 1.73007813 16.11328125 1.81640625 C17.54220703 1.90728516 17.54220703 1.90728516 19 2 C19 2.33 19 2.66 19 3 C14.71 3 10.42 3 6 3 C6 3.66 6 4.32 6 5 C3.5625 4.1875 3.5625 4.1875 1 3 C0.67 2.01 0.34 1.02 0 0 Z " fill="#CECECE" transform="translate(138,231)"/>
<path d="M0 0 C0.33 0.66 0.66 1.32 1 2 C1.66 2.33 2.32 2.66 3 3 C2.04882866 4.1725131 1.08882991 5.33787015 0.125 6.5 C-0.40867187 7.1496875 -0.94234375 7.799375 -1.4921875 8.46875 C-1.98976563 8.9740625 -2.48734375 9.479375 -3 10 C-3.66 10 -4.32 10 -5 10 C-5 8.35 -5 6.7 -5 5 C-4.01 5 -3.02 5 -2 5 C-2.33 4.01 -2.66 3.02 -3 2 C-2.01 2 -1.02 2 0 2 C0 1.34 0 0.68 0 0 Z " fill="#6CBCDB" transform="translate(275,185)"/>
<path d="M0 0 C2.92879371 0.62759865 5.36095629 1.58622659 8 3 C7 4 7 4 3.4375 4.0625 C2.303125 4.041875 1.16875 4.02125 0 4 C0 2.68 0 1.36 0 0 Z " fill="#5AB1D7" transform="translate(284,236)"/>
<path d="M0 0 C0.99 0.33 1.98 0.66 3 1 C2.01 2.485 2.01 2.485 1 4 C4.3 4 7.6 4 11 4 C11 4.33 11 4.66 11 5 C7.04 5 3.08 5 -1 5 C-0.67 3.35 -0.34 1.7 0 0 Z " fill="#ECFCFD" transform="translate(266,209)"/>
<path d="M0 0 C3.96 0 7.92 0 12 0 C11.67 1.32 11.34 2.64 11 4 C10.01 4.495 10.01 4.495 9 5 C9 3.68 9 2.36 9 1 C6.03 1 3.06 1 0 1 C0 0.67 0 0.34 0 0 Z " fill="#4EB0D5" transform="translate(269,182)"/>
<path d="M0 0 C0.33 0.66 0.66 1.32 1 2 C-0.65 2 -2.3 2 -4 2 C-2.68 1.34 -1.36 0.68 0 0 Z " fill="#FBFBFB" transform="translate(157,234)"/>
<path d="M0 0 C2 1 2 1 2 1 Z " fill="#FDFDFD" transform="translate(145,235)"/>
<path d="M0 0 C2 1 2 1 2 1 Z " fill="#FBFBFB" transform="translate(413,215)"/>
<path d="" fill="#FEFEFE" transform="translate(0,0)"/>
<path d="" fill="#FBFBFB" transform="translate(0,0)"/>
<path d="" fill="#F8F8F8" transform="translate(0,0)"/>
<path d="" fill="#F4F4F4" transform="translate(0,0)"/>
<path d="" fill="#F9F9F9" transform="translate(0,0)"/>
<path d="" fill="#F8F8F8" transform="translate(0,0)"/>
<path d="" fill="#F9F9F9" transform="translate(0,0)"/>
<path d="" fill="#FAFAFA" transform="translate(0,0)"/>
<path d="" fill="#FEFEFE" transform="translate(0,0)"/>
<path d="" fill="#F7F7F7" transform="translate(0,0)"/>
<path d="" fill="#F5F5F5" transform="translate(0,0)"/>
</svg>
